HIERARCHY
ROOT Pelvis
{
	OFFSET -0.217368 -24.078917 2.858379
	CHANNELS 6 Xposition Yposition Zposition Zrotation Yrotation Xrotation 
	JOINT Left_hip
	{
		OFFSET 5.858135 -8.228005 -1.766408
		CHANNELS 3 Zrotation Yrotation Xrotation
		JOINT Left_knee
		{
			OFFSET 4.345143 -38.646942 0.803700
			CHANNELS 3 Zrotation Yrotation Xrotation
			JOINT Left_ankle
			{
				OFFSET -1.479033 -42.687447 -3.742800
				CHANNELS 3 Zrotation Yrotation Xrotation
				JOINT Left_foot
				{
					OFFSET 4.105436 -6.028605 12.204244
					CHANNELS 3 Zrotation Yrotation Xrotation
					End Site
					{
						OFFSET 0.000000 0.000000 0.000000
					}
				}
			}
		}
	}
	JOINT Right_hip
	{
		OFFSET -6.030973 -9.051328 -1.354253
		CHANNELS 3 Zrotation Yrotation Xrotation
		JOINT Right_knee
		{
			OFFSET -4.325663 -38.368790 -0.484304
			CHANNELS 3 Zrotation Yrotation Xrotation
			JOINT Right_ankle
			{
				OFFSET 1.905555 -42.004566 -3.456167
				CHANNELS 3 Zrotation Yrotation Xrotation
				JOINT Right_foot
				{
					OFFSET -3.483987 -6.210554 13.032330
					CHANNELS 3 Zrotation Yrotation Xrotation
					End Site
					{
						OFFSET 0.000000 0.000000 0.000000
					}
				}
			}
		}
	}
	JOINT Spine1
	{
		OFFSET 0.443945 12.440353 -3.838522
		CHANNELS 3 Zrotation Yrotation Xrotation
		JOINT Spine2
		{
			OFFSET 0.448844 13.795640 2.682033
			CHANNELS 3 Zrotation Yrotation Xrotation
			JOINT Spine3
			{
				OFFSET -0.226460 5.603239 0.285504
				CHANNELS 3 Zrotation Yrotation Xrotation
				JOINT Neck
				{
					OFFSET -1.339018 21.163553 -3.346758
					CHANNELS 3 Zrotation Yrotation Xrotation
					JOINT Head
					{
						OFFSET 1.011321 8.893734 5.040987
						CHANNELS 3 Zrotation Yrotation Xrotation
						End Site
						{
							OFFSET 0.000000 0.000000 0.000000
						}
					}
				}
				JOINT Left_collar
				{
					OFFSET 7.170247 11.399971 -1.889817
					CHANNELS 3 Zrotation Yrotation Xrotation
					JOINT Left_shoulder
					{
						OFFSET 12.292140 4.520507 -1.904600
						CHANNELS 3 Zrotation Yrotation Xrotation
						JOINT Left_elbow
						{
							OFFSET 25.533188 -1.564902 -2.294648
							CHANNELS 3 Zrotation Yrotation Xrotation
							JOINT Left_wrist
							{
								OFFSET 26.570929 1.269810 -0.737473
								CHANNELS 3 Zrotation Yrotation Xrotation
								JOINT Left_palm
								{
									OFFSET 8.669054 -1.063602 -1.559429
									CHANNELS 3 Zrotation Yrotation Xrotation
									End Site
									{
										OFFSET 0.000000 0.000000 0.000000
									}
								}
							}
						}
					}
				}
				JOINT Right_collar
				{
					OFFSET -8.295364 11.247234 -2.370738
					CHANNELS 3 Zrotation Yrotation Xrotation
					JOINT Right_shoulder
					{
						OFFSET -11.322830 4.685326 -0.847207
						CHANNELS 3 Zrotation Yrotation Xrotation
						JOINT Right_elbow
						{
							OFFSET -26.012751 -1.436928 -3.126872
							CHANNELS 3 Zrotation Yrotation Xrotation
							JOINT Right_wrist
							{
								OFFSET -26.910841 0.679372 -0.602677
								CHANNELS 3 Zrotation Yrotation Xrotation
								JOINT Right_palm
								{
									OFFSET -8.875370 -0.865157 -1.010708
									CHANNELS 3 Zrotation Yrotation Xrotation
									End Site
									{
										OFFSET 0.000000 0.000000 0.000000
									}
								}
							}
						}
					}
				}
			}
		}
	}
}
MOTION
Frames: 9
Frame Time: 0.016667
-187.119278 67.557755 16.619450 -0.035151 5.606825 3.730772 15.477370 0.805519 -22.293619 -11.207616 3.315117 30.438754 7.029272 14.836590 2.296252 0.000000 0.000000 0.000000 -12.612156 0.065356 -21.672302 8.233703 -1.954100 30.988416 -6.974729 -17.655451 6.773010 0.000000 0.000000 0.000000 2.712629 -0.847536 12.748997 1.522596 0.240149 -23.561103 0.327789 7.688397 24.186258 8.638429 -3.529744 -18.309130 0.000000 0.000000 0.000000 -19.484286 2.713604 -3.491663 -28.161775 -8.526145 -1.317458 9.527473 -38.937333 -1.864201 0.000000 0.000000 0.000000 0.000000 0.000000 0.000000 17.443637 -2.135861 -2.863019 18.910888 8.627165 -0.621936 -19.889549 25.908853 -3.373628 0.000000 0.000000 0.000000 0.000000 0.000000 0.000000 
-185.974350 67.138115 16.656488 -1.446486 6.213173 3.799736 14.814886 0.680107 -22.221636 -11.150621 3.391377 31.777629 7.822533 16.143945 0.263549 0.000000 0.000000 0.000000 -11.956139 0.170508 -22.688525 8.891168 -2.354247 34.116385 -7.650329 -19.010351 6.991462 0.000000 0.000000 0.000000 1.169619 -0.625435 12.043415 2.010830 0.123144 -23.644278 1.762684 6.377753 23.730670 5.930679 -1.924157 -18.912256 0.000000 0.000000 0.000000 -19.983256 3.975709 -4.242500 -29.155278 -7.637847 -1.535852 8.523205 -37.042083 -1.431420 0.000000 0.000000 0.000000 0.000000 0.000000 0.000000 16.731408 -2.408098 -2.908255 21.191735 8.423038 -0.669626 -20.190115 25.780302 -3.417745 0.000000 0.000000 0.000000 0.000000 0.000000 0.000000 
-184.703262 67.407372 16.683456 -1.879573 7.379612 2.807623 12.289582 0.173116 -19.699259 -8.331633 2.168890 30.162972 7.626273 15.618250 -1.039939 0.000000 0.000000 0.000000 -12.517964 0.074679 -22.332621 10.076464 -3.014626 36.762112 -7.863568 -19.488134 10.587803 0.000000 0.000000 0.000000 -1.024324 -0.414470 13.253368 3.351031 -0.211542 -23.563884 0.499445 5.389578 23.317803 4.003523 -0.724751 -20.119104 0.000000 0.000000 0.000000 -20.585828 4.975270 -4.881553 -28.697688 -7.030651 -1.641423 11.187939 -36.250412 -2.260440 0.000000 0.000000 0.000000 0.000000 0.000000 0.000000 17.637702 -1.623644 -2.622776 23.672208 7.473605 -0.844939 -19.595540 25.930238 -3.314145 0.000000 0.000000 0.000000 0.000000 0.000000 0.000000 
-183.621445 68.148560 16.718937 -3.580388 8.649495 0.732610 11.423944 0.009530 -16.967286 -7.223343 1.645939 27.484142 7.185383 14.800073 -0.433001 0.000000 0.000000 0.000000 -12.554947 0.076515 -21.517385 10.765909 -3.442205 38.473757 -7.549555 -19.000337 13.939293 0.000000 0.000000 0.000000 -2.806066 -0.212976 14.488805 4.286540 -0.438821 -23.628881 1.964599 3.843218 23.601320 2.478829 0.076297 -19.902689 0.000000 0.000000 0.000000 -21.977578 5.523440 -5.425977 -27.832920 -7.134119 -1.581044 9.500457 -35.916367 -1.696520 0.000000 0.000000 0.000000 0.000000 0.000000 0.000000 17.919170 0.098832 -1.757537 25.391920 6.335564 -1.073615 -20.137909 28.268798 -3.795029 0.000000 0.000000 0.000000 0.000000 0.000000 0.000000 
-182.966064 68.758789 16.842644 -4.595365 10.100374 -0.219146 11.318349 -0.014464 -15.738701 -6.928561 1.503390 26.316267 7.541985 15.570929 0.069756 0.000000 0.000000 0.000000 -14.708978 -0.274014 -21.254599 11.335800 -3.740496 38.863176 -7.474513 -18.978855 18.161109 0.000000 0.000000 0.000000 -3.392295 -0.128448 14.030985 5.297129 -0.743899 -22.877371 1.596134 3.651163 23.855586 2.385171 0.226605 -21.008813 0.000000 0.000000 0.000000 -22.158872 5.463061 -5.424509 -27.271173 -6.636451 -1.650873 9.544272 -37.525418 -1.795165 0.000000 0.000000 0.000000 0.000000 0.000000 0.000000 18.057142 -0.808419 -2.248511 27.283140 5.913991 -1.209456 -21.855819 32.470500 -4.937167 0.000000 0.000000 0.000000 0.000000 0.000000 0.000000 
-182.687729 69.487846 17.105469 -5.357163 10.285123 -0.695305 11.833667 0.022538 -13.459246 -7.613931 1.687204 24.733082 7.190734 14.908113 0.341217 0.000000 0.000000 0.000000 -17.392920 -0.616950 -19.424165 9.971043 -2.922954 36.002053 -6.368091 -17.433322 21.700905 0.000000 0.000000 0.000000 -2.990636 -0.161428 12.693923 4.172584 -0.471239 -22.671795 2.348997 3.119005 24.828090 3.661307 -0.517122 -20.340488 0.000000 0.000000 0.000000 -21.844936 5.579205 -5.433385 -27.379280 -5.338864 -1.905218 12.745505 -40.474803 -3.123143 0.000000 0.000000 0.000000 0.000000 0.000000 0.000000 18.120169 -1.075410 -2.396078 28.949106 5.146414 -1.421856 -23.507930 35.780780 -6.042388 0.000000 0.000000 0.000000 0.000000 0.000000 0.000000 
-182.783585 69.900795 17.438374 -5.376337 10.493762 -0.454335 12.615023 0.094841 -12.910365 -7.188252 1.516491 23.889614 5.889937 12.458301 1.106117 0.000000 0.000000 0.000000 -20.205657 -0.918973 -17.959013 8.199071 -1.954290 31.358894 -4.653891 -15.329291 26.314233 0.000000 0.000000 0.000000 -1.894796 -0.265477 11.592890 2.693656 -0.103454 -22.465263 2.131046 3.011464 24.585880 5.699809 -1.778044 -19.051579 0.000000 0.000000 0.000000 -20.796146 5.604803 -5.260743 -26.949909 -4.093746 -2.112079 15.691052 -43.713780 -4.581188 0.000000 0.000000 0.000000 0.000000 0.000000 0.000000 19.207662 -2.611282 -3.351211 28.960075 3.592089 -1.737565 -25.978610 40.926898 -7.973631 0.000000 0.000000 0.000000 0.000000 0.000000 0.000000 
-183.356216 69.951828 17.690922 -5.736863 9.992317 0.471827 13.384940 0.169464 -12.784408 -6.643168 1.301259 22.547169 5.195470 10.934652 0.393965 0.000000 0.000000 0.000000 -21.538703 -0.910252 -15.853087 5.657560 -0.882369 26.294959 -2.319595 -12.678963 30.301375 0.000000 0.000000 0.000000 -1.135549 -0.264459 8.875053 1.044513 0.296872 -21.771318 2.436796 3.926035 24.536417 7.229069 -2.810377 -17.798402 0.000000 0.000000 0.000000 -18.773761 5.566166 -4.885303 -27.130094 -2.777711 -2.373050 17.457012 -47.070124 -5.750706 0.000000 0.000000 0.000000 0.000000 0.000000 0.000000 19.422719 -4.120060 -4.191590 28.704431 2.281166 -1.985561 -22.757810 42.171141 -7.043755 0.000000 0.000000 0.000000 0.000000 0.000000 0.000000 
-184.448700 69.668304 17.907019 -5.314181 9.178613 0.286900 13.565223 0.189320 -12.850373 -6.806869 1.374373 23.303360 4.918279 10.258248 -0.113213 0.000000 0.000000 0.000000 -23.785708 -0.961271 -13.919373 4.230700 -0.394006 22.944084 -0.457608 -10.735818 33.012695 0.000000 0.000000 0.000000 -0.931485 -0.251398 7.941373 0.929073 0.315692 -21.423446 2.213459 5.797801 24.885627 7.862139 -3.280748 -17.098197 0.000000 0.000000 0.000000 -17.337566 5.475649 -4.591644 -27.425469 -3.793384 -2.204100 18.680276 -47.947614 -6.418917 0.000000 0.000000 0.000000 0.000000 0.000000 0.000000 19.110262 -5.058395 -4.642937 29.204365 1.298852 -2.219423 -17.780553 43.200732 -5.334632 0.000000 0.000000 0.000000 0.000000 0.000000 0.000000 
